<?xml version="1.0" encoding="utf-8"?>
<!-- Generator: Adobe Illustrator 16.0.4, SVG Export Plug-In . SVG Version: 6.00 Build 0)  -->
<!DOCTYPE svg PUBLIC "-//W3C//DTD SVG 1.1//EN" "http://www.w3.org/Graphics/SVG/1.1/DTD/svg11.dtd">
<svg version="1.1"
	 id="svg2" xmlns:dc="http://purl.org/dc/elements/1.1/" xmlns:cc="http://web.resource.org/cc/" xmlns:rdf="http://www.w3.org/1999/02/22-rdf-syntax-ns#" xmlns:svg="http://www.w3.org/2000/svg" xmlns:sodipodi="http://inkscape.sourceforge.net/DTD/sodipodi-0.dtd" xmlns:inkscape="http://www.inkscape.org/namespaces/inkscape" sodipodi:docname="logo-python-generic.svg" inkscape:version="0.43" sodipodi:version="0.32" sodipodi:docbase="/home/sdeibel"
	 xmlns="http://www.w3.org/2000/svg" xmlns:xlink="http://www.w3.org/1999/xlink" x="0px" y="0px" width="388.84px"
	 height="115.02px" viewBox="0 0 388.84 115.02" enable-background="new 0 0 388.84 115.02" xml:space="preserve">
<sodipodi:namedview  inkscape:cy="71.887497" inkscape:cx="243.02499" borderopacity="1.0" pagecolor="#ffffff" bordercolor="#666666" inkscape:zoom="1.4340089" id="base" inkscape:current-layer="svg2" inkscape:window-y="0" inkscape:window-x="0" inkscape:pageopacity="0.0" inkscape:pageshadow="2" inkscape:window-width="791" inkscape:window-height="543">
	</sodipodi:namedview>
<g id="g2303">
	<path id="path46" fill="#646464" d="M148.005,48.609c0-11.569-3.299-17.509-9.896-17.833c-2.625-0.124-5.189,0.294-7.682,1.262
		c-1.99,0.712-3.33,1.417-4.035,2.13v27.613c4.221,2.649,7.968,3.881,11.236,3.687C144.544,65.011,148.005,59.397,148.005,48.609z
		 M156.144,49.09c0,5.877-1.378,10.756-4.15,14.635c-3.09,4.392-7.372,6.652-12.847,6.776c-4.128,0.132-8.379-1.162-12.754-3.872
		v25.097l-7.077-2.524V33.493c1.161-1.424,2.656-2.648,4.468-3.685c4.213-2.455,9.331-3.717,15.356-3.779l0.101,0.101
		c5.505-0.069,9.75,2.191,12.73,6.775C154.75,37.11,156.144,42.499,156.144,49.09z"/>
	<path id="path48" fill="#646464" d="M199.4,65.56c0,7.885-0.791,13.343-2.37,16.379c-1.587,3.035-4.606,5.459-9.067,7.263
		c-3.616,1.425-7.527,2.2-11.724,2.331l-1.169-4.46c4.268-0.58,7.271-1.162,9.014-1.743c3.431-1.161,5.785-2.942,7.077-5.328
		c1.038-1.941,1.548-5.652,1.548-11.142v-1.844c-4.839,2.199-9.911,3.291-15.216,3.291c-3.484,0-6.559-1.092-9.207-3.291
		c-2.973-2.393-4.459-5.428-4.459-9.105V28.453l7.077-2.424v29.65c0,3.167,1.023,5.606,3.066,7.318
		c2.045,1.711,4.694,2.531,7.938,2.47c3.244-0.069,6.721-1.325,10.415-3.778V27.097h7.078V65.56z"/>
	<path id="path50" fill="#646464" d="M227.028,70.114c-0.844,0.07-1.617,0.101-2.33,0.101c-4.003,0-7.124-0.952-9.354-2.864
		c-2.222-1.914-3.338-4.554-3.338-7.922V31.55h-4.847v-4.453h4.847V15.273l7.071-2.517v14.341h7.951v4.453h-7.951v27.684
		c0,2.656,0.712,4.537,2.137,5.638c1.224,0.905,3.167,1.425,5.814,1.557V70.114z"/>
	<path id="path52" fill="#646464" d="M269.884,69.533h-7.079v-27.32c0-2.78-0.65-5.173-1.943-7.17
		c-1.495-2.262-3.57-3.392-6.233-3.392c-3.244,0-7.303,1.712-12.174,5.134v32.749h-7.077V4.23L242.454,2v29.744
		c4.523-3.291,9.464-4.94,14.829-4.94c3.749,0,6.784,1.262,9.106,3.779c2.33,2.516,3.494,5.653,3.494,9.401V69.533L269.884,69.533z"
		/>
	<path id="path54" fill="#646464" d="M307.501,47.494c0-4.445-0.844-8.115-2.523-11.02c-1.999-3.539-5.103-5.405-9.301-5.599
		c-7.76,0.45-11.631,6.009-11.631,16.665c0,4.886,0.806,8.967,2.432,12.241c2.075,4.175,5.189,6.235,9.339,6.165
		C303.606,65.886,307.501,59.737,307.501,47.494z M315.252,47.541c0,6.327-1.617,11.593-4.847,15.796
		c-3.554,4.709-8.463,7.071-14.729,7.071c-6.21,0-11.05-2.362-14.542-7.071c-3.168-4.203-4.747-9.469-4.747-15.796
		c0-5.948,1.712-10.95,5.134-15.023c3.616-4.321,8.371-6.489,14.249-6.489c5.877,0,10.663,2.167,14.349,6.489
		C313.542,36.591,315.252,41.594,315.252,47.541z"/>
	<path id="path56" fill="#646464" d="M355.83,69.533h-7.078V40.665c0-3.167-0.953-5.638-2.858-7.419
		c-1.903-1.773-4.444-2.632-7.61-2.563c-3.361,0.062-6.56,1.163-9.595,3.292v35.56h-7.077V33.098
		c4.073-2.965,7.82-4.902,11.243-5.807c3.229-0.845,6.078-1.263,8.533-1.263c1.681,0,3.261,0.162,4.746,0.488
		c2.781,0.642,5.041,1.834,6.785,3.585c1.942,1.936,2.911,4.258,2.911,6.977V69.533z"/>
	
		<linearGradient id="path1948_1_" gradientUnits="userSpaceOnUse" x1="-124.499" y1="-189.2151" x2="-37.8878" y2="-263.7324" gradientTransform="matrix(0.5625 0 0 -0.568 73.6483 -100.437)">
		<stop  offset="0" style="stop-color:#5A9FD4"/>
		<stop  offset="1" style="stop-color:#306998"/>
	</linearGradient>
	<path id="path1948" fill="url(#path1948_1_)" d="M49.411,4.491c-3.642,0.017-7.12,0.327-10.179,0.869
		c-9.014,1.593-10.651,4.927-10.651,11.073v8.119h21.301v2.706H28.581h-7.994c-6.191,0-11.612,3.721-13.307,10.8
		c-1.956,8.114-2.043,13.177,0,21.649c1.514,6.307,5.13,10.799,11.321,10.799h7.324v-9.732c0-7.03,6.083-13.232,13.307-13.232
		h21.276c5.923,0,10.651-4.876,10.651-10.824V16.433c0-5.772-4.87-10.109-10.651-11.073C56.849,4.752,53.052,4.475,49.411,4.491z
		 M37.891,11.022c2.2,0,3.997,1.826,3.997,4.071c0,2.237-1.797,4.047-3.997,4.047c-2.208,0-3.997-1.81-3.997-4.047
		C33.894,12.848,35.682,11.022,37.891,11.022z"/>
	
		<linearGradient id="path1950_1_" gradientUnits="userSpaceOnUse" x1="-4.4053" y1="-308.8337" x2="-35.3329" y2="-265.0764" gradientTransform="matrix(0.5625 0 0 -0.568 73.6483 -100.437)">
		<stop  offset="0" style="stop-color:#FFD43B"/>
		<stop  offset="1" style="stop-color:#FFE873"/>
	</linearGradient>
	<path id="path1950" fill="url(#path1950_1_)" d="M73.815,27.258v9.459c0,7.333-6.218,13.505-13.308,13.505H39.231
		c-5.828,0-10.651,4.988-10.651,10.824v20.284c0,5.772,5.02,9.168,10.651,10.824c6.743,1.982,13.208,2.342,21.276,0
		c5.363-1.553,10.651-4.678,10.651-10.824v-8.118H49.882v-2.707h21.277h10.65c6.191,0,8.498-4.319,10.651-10.799
		c2.224-6.673,2.129-13.09,0-21.649c-1.53-6.162-4.452-10.8-10.651-10.8H73.815z M61.849,78.624c2.208,0,3.997,1.811,3.997,4.048
		c0,2.245-1.789,4.071-3.997,4.071c-2.2,0-3.998-1.826-3.998-4.071C57.852,80.435,59.649,78.624,61.849,78.624z"/>
	<path id="text3004" fill="#646464" d="M369.612,20.787h1.241v-7.783h2.939v-0.928h-7.119v0.928h2.938V20.787 M374.893,20.787h1.062
		v-7.108l2.302,7.108h1.179l2.399-7.083v7.084h1.155v-8.71h-1.53l-2.62,7.462l-2.235-7.462h-1.711V20.787"/>
	
		<radialGradient id="path1894_1_" cx="-1361.832" cy="-42.2322" r="23.0669" gradientTransform="matrix(1.749057e-08 -0.2399 -1.0547 -3.791546e-07 5.5815 -220.8231)" gradientUnits="userSpaceOnUse">
		<stop  offset="0" style="stop-color:#B8B8B8;stop-opacity:0.498"/>
		<stop  offset="1" style="stop-color:#7F7F7F;stop-opacity:0"/>
	</radialGradient>
	<path id="path1894" opacity="0.4438" fill="url(#path1894_1_)" enable-background="new    " d="M78.669,105.945
		c0,3.058-12.78,5.535-28.545,5.535c-15.766,0-28.546-2.478-28.546-5.535c0-3.057,12.78-5.535,28.546-5.535
		C65.889,100.409,78.669,102.888,78.669,105.945z"/>
</g>
</svg>
